<?xml version="1.0" standalone="no"?>
<!DOCTYPE svg PUBLIC "-//W3C//DTD SVG 20010904//EN"
 "http://www.w3.org/TR/2001/REC-SVG-20010904/DTD/svg10.dtd">
<svg version="1.0" xmlns="http://www.w3.org/2000/svg"
 width="151.000000pt" height="151.000000pt" viewBox="0 0 151.000000 151.000000"
 preserveAspectRatio="xMidYMid meet">
<metadata>
Created by potrace 1.14, written by Peter Selinger 2001-2017
</metadata>
<g transform="translate(0.000000,151.000000) scale(0.100000,-0.100000)"
fill="#000000" stroke="none">
<path d="M342 1052 c-77 -28 -138 -85 -175 -162 -31 -67 -30 -188 2 -254 69
-141 229 -208 377 -157 58 19 64 20 94 4 53 -26 146 -28 213 -5 55 18 61 19
90 3 47 -24 179 -21 237 5 59 27 123 91 152 151 32 69 31 188 -2 258 -67 139
-232 208 -375 158 -48 -17 -52 -17 -105 1 -64 21 -159 18 -211 -8 -30 -15 -36
-15 -83 2 -68 25 -149 26 -214 4z"/>
</g>
</svg>
